<?xml version="1.0" encoding="UTF-8"?>
<svg enable-background="new 0 0 256 256" version="1.1" viewBox="0 0 300 300" xml:space="preserve" xmlns="http://www.w3.org/2000/svg" xmlns:cc="http://creativecommons.org/ns#" xmlns:dc="http://purl.org/dc/elements/1.1/" xmlns:rdf="http://www.w3.org/1999/02/22-rdf-syntax-ns#" xmlns:xlink="http://www.w3.org/1999/xlink"><metadata><rdf:RDF><cc:Work rdf:about=""><dc:format>image/svg+xml</dc:format><dc:type rdf:resource="http://purl.org/dc/dcmitype/StillImage"/><dc:title/></cc:Work></rdf:RDF></metadata><defs><linearGradient id="d"><stop stop-color="#004b02" offset="0"/><stop stop-color="#faff00" offset="1"/></linearGradient><linearGradient id="f" x1="159.5" x2="159.5" y1=".34315" y2="301.72" gradientUnits="userSpaceOnUse"><stop stop-color="#00b1ff" offset="0"/><stop stop-color="#060" offset="1"/></linearGradient><linearGradient id="e" x1="62.962" x2="68.996" y1="203.16" y2="-5.9998" gradientUnits="userSpaceOnUse" xlink:href="#d"/><linearGradient id="c" x1="68.996" x2="68.996" y1="220.76" y2=".93348" gradientUnits="userSpaceOnUse"><stop stop-color="#338000" offset="0"/><stop stop-color="#fbff4b" offset="1"/></linearGradient><linearGradient id="b" x1="63.716" x2="63.716" y1="256.71" y2="71.208" gradientUnits="userSpaceOnUse"><stop stop-color="#001b0a" offset="0"/><stop stop-color="#31cfdc" offset="1"/></linearGradient><linearGradient id="a" x1="150" x2="150" y1="266.26" y2="104.5" gradientTransform="translate(0,-10)" gradientUnits="userSpaceOnUse"><stop stop-color="#d57f00" offset="0"/><stop stop-color="#f6ff7a" offset="1"/></linearGradient></defs><rect width="300" height="300" ry="0" fill="url(#f)"/><path d="m44.5 254.5 218.5-2-49.5-51.5-41-66.5-22.5-40-41 73.5-44 58-28 28.5z" fill="url(#a)" stroke="#000" stroke-width="1px"/><g transform="matrix(.93753 0 0 .9375 29.997 20)" fill="url(#e)" fill-rule="evenodd"><g clip-rule="evenodd" fill-rule="evenodd"><path d="m150.73 85.677c7.689-8.152 15.251-17.107 21.93-26.265 1.145-1.571-0.316-3.789-2.222-3.494-2.911 0.449-5.71 0.698-8.41 0.772-1.962 0.054-3.155-2.377-1.739-3.768 9.821-9.643 18.354-20.51 25.035-33.134 0.887-1.676 3.301-1.305 3.958 0.42 5.288 13.891 12.59 26.435 21.294 38.042 1.219 1.626-0.122 3.84-2.114 3.36-2.662-0.643-5.404-1.478-8.236-2.537-1.886-0.704-3.514 1.222-2.562 2.987 8.336 15.449 18.625 30.866 28.658 43.827 1.099 1.42 0.226 3.478-1.609 3.45-4.708-0.074-9.478-0.377-14.3-0.871-1.761-0.181-2.842 1.648-1.982 3.162 8.664 15.262 18.211 29.943 28.676 42.281 1.161 1.368 0.391 3.478-1.447 3.531-5.401 0.154-11.082-0.133-17.135-1.001-1.838-0.264-2.99 1.687-2.018 3.238 11.23 17.927 23.187 35.155 38.709 48.947 1.538 1.366 0.666 3.893-1.41 3.765-7.247-0.446-14.343-0.92-21.331-1.425-14.08-15.288-26.712-31.825-38.328-49.293-16.143-24.279-30.185-49.983-43.417-75.994zm-50.217-80.923c-2.877-0.726-5.974-0.75-9.044 0.073-9.603 2.572-15.301 12.441-12.728 22.042s12.443 15.299 22.045 12.727c3.07-0.822 5.74-2.392 7.869-4.458-9.481 21.109-40.7 19.01-46.798-3.745s19.889-40.18 38.656-26.639zm-24.79 134.91c-3.733-4.652-7.338-9.426-10.717-14.24-1.131-1.612 0.294-3.776 2.221-3.376 2.912 0.606 5.71 1.005 8.41 1.223 1.996 0.162 3.13-2.234 1.739-3.674-9.821-10.17-18.354-21.493-25.035-34.475-0.857-1.666-3.279-1.539-3.958 0.207-5.287 13.609-12.59 25.762-21.294 36.902-1.231 1.576 0.148 3.842 2.113 3.473 2.663-0.5 5.404-1.189 8.236-2.095 1.873-0.601 3.517 1.405 2.562 3.125-8.336 15.002-18.625 29.867-28.658 42.292-1.126 1.393-0.182 3.467 1.609 3.536 4.708 0.178 9.478 0.131 14.3-0.105 1.729-0.085 2.856 1.774 1.982 3.267-8.665 14.799-18.211 28.969-28.676 40.746-1.192 1.343-0.342 3.461 1.447 3.609 4.023 0.33 8.201 0.424 12.573 0.226 24.01-24.125 43.715-51.591 61.146-80.641z" fill="url(#c)"/><path d="m250 255.99c5.8 0 7.943-7.134 3.582-10.812-54.869-46.281-88.779-108.44-120.21-171.8-2.256-4.547-8.565-4.377-10.801 0.134-31.404 63.356-65.736 125.47-120.43 171.91-4.282 3.637-1.614 10.569 3.867 10.569h71.075l-0.015 6e-3c57.79 0 115.02-6e-3 172.94-6e-3zm-125.98-144.76c-0.112-2.2 1.581-4.076 3.781-4.188 2.2-0.111 4.076 1.582 4.187 3.781 0.234 4.392 0.492 8.788 0.772 13.176 2.597 40.637 7.57 83.633 25.149 120.05l76.38-0.056c-46.543-43.564-77.884-98.207-106.29-154.58-28.4 56.378-59.741 111.02-106.28 154.58h46.402c-1.252-1.686-2.476-3.379-3.689-5.102-2.839-4.03-9.32-13.171-11.237-17.297-0.929-2 0.12-4.374 2.156-5.219 15.598-6.467 31.477-20.741 44.216-39.156 12.155-17.569 21.385-38.84 24.749-60.657-0.101-1.761-0.2-3.539-0.296-5.335zm2.756 38.023c-0.223-2.306-0.437-4.646-0.641-7.017-4.864 14.197-11.803 27.66-20.005 39.516-12.454 18.003-27.88 32.362-43.451 40.059 2.851 4.527 5.542 8.597 8.284 12.489 2.688 3.817 5.472 7.529 8.55 11.407 24.556-26.722 44.654-59.471 47.263-96.454z" fill="url(#b)"/></g></g></svg>
