<?xml version="1.0" encoding="UTF-8"?>
<svg version="1.1" viewBox="0 0 60 60" xmlns="http://www.w3.org/2000/svg" xmlns:cc="http://creativecommons.org/ns#" xmlns:dc="http://purl.org/dc/elements/1.1/" xmlns:rdf="http://www.w3.org/1999/02/22-rdf-syntax-ns#" xmlns:xlink="http://www.w3.org/1999/xlink">
<metadata>
<rdf:RDF>
<cc:Work rdf:about="">
<dc:format>image/svg+xml</dc:format>
<dc:type rdf:resource="http://purl.org/dc/dcmitype/StillImage"/>
<dc:title/>
</cc:Work>
</rdf:RDF>
</metadata>
<defs>
<linearGradient id="a" x1="38.561" x2="38.561" y1=".090678" y2="60.09" gradientUnits="userSpaceOnUse">
<stop stop-color="#606060" offset="0"/>
<stop stop-color="#0a0a0a" stop-opacity=".99582" offset="1"/>
</linearGradient>
</defs>
<g fill="none" fill-rule="evenodd">
<rect width="60" height="60" fill="url(#a)"/>
<g transform="matrix(.8 0 0 .8 6 6)" fill-rule="nonzero">
<path d="m59 29h-2.5859l2.293-2.293c0.25524-0.25206 0.3559-0.62154 0.26377-0.96823-0.09213-0.34669-0.36291-0.61747-0.70961-0.70958s-0.71617 0.0086-0.96822 0.26382l-3.7071 3.707h-2.8789l2.6465-2.6465c0.12998-0.12554 0.18211-0.31144 0.13635-0.48625-0.04576-0.17481-0.18228-0.31134-0.3571-0.3571-0.17482-0.04576-0.36072 0.0064-0.48625 0.13635l-3.3535 3.3535h-14.394c-0.16841-0.78997-0.52728-1.5268-1.0454-2.1465l9.7886-9.7886h5.4496c0.27614 0 0.5-0.22386 0.5-0.5s-0.22386-0.5-0.5-0.5h-4.4497l2.5356-2.5356h5.4497c0.27614 0 0.5-0.22386 0.5-0.5s-0.22386-0.5-0.5-0.5h-4.4497l2.6856-2.6856c0.12843-0.12586 0.17937-0.31099 0.13342-0.48484-0.045955-0.17385-0.18173-0.30962-0.35558-0.35558-0.17385-0.045955-0.35898 0.0049898-0.48484 0.13342l-2.6856 2.6855v-4.4497c0-0.27614-0.22386-0.5-0.5-0.5s-0.5 0.22386-0.5 0.5v5.4497l-2.5356 2.5356v-4.4497c0-0.27614-0.22386-0.5-0.5-0.5s-0.5 0.22386-0.5 0.5v5.4497l-9.7886 9.7886c-0.61965-0.51813-1.3565-0.877-2.1465-1.0454v-14.394l3.3535-3.3535c0.12998-0.12554 0.18211-0.31144 0.13635-0.48625-0.045758-0.17481-0.18228-0.31134-0.3571-0.35709-0.17482-0.045758-0.36072 0.0063703-0.48625 0.13635l-2.6465 2.6465v-2.8789l3.707-3.707c0.3863-0.39118 0.38433-1.0208-0.004405-1.4096-0.38874-0.38875-1.0184-0.39075-1.4096-0.0044651l-2.293 2.2929v-2.5859c0-0.55228-0.44772-1-1-1s-1 0.44772-1 1v2.5859l-2.293-2.2929c-0.39148-0.38445-1.0196-0.38161-1.4076 0.0063746-0.38798 0.38798-0.39083 1.0161-0.006375 1.4076l3.707 3.7071v2.8789l-2.6465-2.6465c-0.19619-0.18949-0.50804-0.18678-0.70091 0.0060907s-0.19558 0.50472-0.006091 0.70091l3.3535 3.3535v14.394c-0.78997 0.16841-1.5268 0.52728-2.1465 1.0454l-9.7886-9.7886v-5.4496c0-0.27614-0.22386-0.5-0.5-0.5s-0.5 0.22386-0.5 0.5v4.4497l-2.5356-2.5356v-5.4497c0-0.27614-0.22386-0.5-0.5-0.5s-0.5 0.22386-0.5 0.5v4.4497l-2.6856-2.6856c-0.1958-0.19188-0.5096-0.1903-0.70345 0.0035529-0.19385 0.19385-0.19543 0.50765-0.0035529 0.70345l2.6856 2.6856h-4.4497c-0.27614 0-0.5 0.22386-0.5 0.5s0.22386 0.5 0.5 0.5h5.4497l2.5356 2.5356h-4.4497c-0.27614 0-0.5 0.22386-0.5 0.5s0.22386 0.5 0.5 0.5h5.4497l9.7886 9.7886c-0.51813 0.61966-0.87701 1.3565-1.0454 2.1465h-14.394l-3.3535-3.3535c-0.19619-0.18949-0.50804-0.18678-0.70091 0.006091s-0.19558 0.50472-0.0060907 0.70091l2.6465 2.6465h-2.8789l-3.7071-3.707c-0.39148-0.38445-1.0196-0.38161-1.4076 0.006375-0.38798 0.38798-0.39083 1.0161-0.0063746 1.4076l2.2929 2.293h-2.5859c-0.55228 0-1 0.44772-1 1s0.44772 1 1 1h2.5859l-2.2929 2.293c-0.25641 0.25181-0.35797 0.62186-0.266 0.96928 0.091967 0.34742 0.36331 0.61876 0.71072 0.71072 0.34742 0.09197 0.71747-0.0096 0.96928-0.266l3.7071-3.707h2.8789l-2.6465 2.6465c-0.12998 0.12554-0.18211 0.31144-0.13635 0.48625 0.045758 0.17481 0.18228 0.31134 0.35709 0.3571 0.17481 0.04576 0.36072-0.0064 0.48625-0.13635l3.3535-3.3535h14.394c0.16841 0.78997 0.52728 1.5268 1.0454 2.1465l-9.7886 9.7886h-5.4496c-0.27614 0-0.5 0.22386-0.5 0.5s0.22386 0.5 0.5 0.5h4.4497l-2.5356 2.5356h-5.4497c-0.27614 0-0.5 0.22386-0.5 0.5s0.22386 0.5 0.5 0.5h4.4497l-2.6856 2.6856c-0.12843 0.12586-0.17937 0.31099-0.13342 0.48484 0.045955 0.17385 0.18173 0.30962 0.35558 0.35558 0.17385 0.04596 0.35898-5e-3 0.48484-0.13342l2.6856-2.6856v4.4497c0 0.27614 0.22386 0.5 0.5 0.5s0.5-0.22386 0.5-0.5v-5.4497l2.5356-2.5356v4.4497c0 0.27614 0.22386 0.5 0.5 0.5s0.5-0.22386 0.5-0.5v-5.4497l9.7886-9.7886c0.61966 0.51813 1.3565 0.87701 2.1465 1.0454v14.394l-3.3535 3.3535c-0.18949 0.19619-0.18678 0.50804 0.0061 0.70091 0.19287 0.19287 0.50472 0.19558 0.70091 0.0061l2.6465-2.6465v2.8789l-3.707 3.707c-0.38764 0.39095-0.38631 1.0217 3e-3 1.411 0.38929 0.38931 1.02 0.39068 1.411 0.0031l2.293-2.293v2.5859c0 0.55228 0.44772 1 1 1s1-0.44772 1-1v-2.5859l2.293 2.293c0.39119 0.38628 1.0209 0.38429 1.4096-0.0045 0.38874-0.38875 0.3907-1.0184 0.0044-1.4096l-3.707-3.707v-2.8789l2.6465 2.6465c0.19619 0.18949 0.50804 0.18678 0.70091-0.0061 0.19287-0.19287 0.19558-0.50472 0.0061-0.70091l-3.3535-3.3535v-14.394c0.78997-0.16841 1.5268-0.52728 2.1465-1.0454l9.7886 9.7886v5.4496c0 0.27614 0.22386 0.5 0.5 0.5s0.5-0.22386 0.5-0.5v-4.4497l2.5356 2.5356v5.4497c0 0.27614 0.22386 0.5 0.5 0.5s0.5-0.22386 0.5-0.5v-4.4497l2.6856 2.6856c0.1958 0.19188 0.5096 0.1903 0.70345-0.0036 0.19385-0.19385 0.19544-0.50765 0.0036-0.70345l-2.6856-2.6855h4.4497c0.27614 0 0.5-0.22386 0.5-0.5s-0.22386-0.5-0.5-0.5h-5.4497l-2.5356-2.5356h4.4497c0.27614 0 0.5-0.22386 0.5-0.5s-0.22386-0.5-0.5-0.5h-5.4497l-9.7886-9.7886c0.51813-0.61965 0.877-1.3565 1.0454-2.1465h14.394l3.3535 3.3535c0.19619 0.18949 0.50804 0.18678 0.70091-0.0061 0.19287-0.19287 0.19558-0.50472 0.0061-0.70091l-2.6465-2.6465h2.8789l3.707 3.707c0.39095 0.38764 1.0217 0.3863 1.411-3e-3 0.38931-0.38929 0.39068-1.02 0.0031-1.411l-2.293-2.293h2.5859c0.55228 0 1-0.44772 1-1s-0.44772-1-1-1zm-29 4c-1.6569 0-3-1.3431-3-3s1.3431-3 3-3 3 1.3431 3 3c-0.0018 1.6561-1.3439 2.9982-3 3z" fill="#bddcf3"/>
<path d="m39.414 30 5.293-5.293c0.28601-0.28597 0.37158-0.71608 0.2168-1.0897-0.15478-0.37366-0.51941-0.61729-0.92386-0.61726h-7v-7c2e-6 -0.40444-0.24363-0.76905-0.61729-0.92381-0.37366-0.15476-0.80375-0.069188-1.0897 0.21681l-5.293 5.2929-5.293-5.293c-0.28597-0.28601-0.71608-0.37158-1.0897-0.2168-0.37366 0.15478-0.61729 0.51941-0.61726 0.92386v7h-7c-0.40444-2e-6 -0.76905 0.24363-0.92381 0.61729-0.15476 0.37366-0.06919 0.80375 0.21681 1.0897l5.2929 5.293-5.293 5.293c-0.28601 0.28597-0.37158 0.71608-0.2168 1.0897 0.15478 0.37366 0.51941 0.61729 0.92386 0.61726h7v7c-2.1e-5 0.40445 0.24361 0.76908 0.61728 0.92384 0.37367 0.15476 0.80377 0.06918 1.0897-0.21684l5.293-5.2929 5.293 5.293c0.28597 0.28601 0.71608 0.37158 1.0897 0.2168 0.37366-0.15478 0.61729-0.51941 0.61726-0.92386v-7h7c0.40444 2e-6 0.76905-0.24363 0.92381-0.61729 0.15476-0.37366 0.069188-0.80375-0.21681-1.0897zm-3.4141 5c-0.55228 0-1 0.44772-1 1v5.5859l-4.293-4.293c-0.18748-0.18758-0.44182-0.29297-0.70703-0.29297s-0.51955 0.10539-0.70703 0.29297l-4.2929 4.293v-5.5859c0-0.55228-0.44772-1-1-1h-5.5859l4.293-4.293c0.18758-0.18748 0.29297-0.44182 0.29297-0.70703s-0.10539-0.51955-0.29297-0.70703l-4.293-4.2929h5.5859c0.55228 0 1-0.44772 1-1v-5.5859l4.293 4.293c0.18748 0.18758 0.44182 0.29297 0.70703 0.29297s0.51955-0.10539 0.70703-0.29297l4.2929-4.293v5.5859c0 0.55228 0.44772 1 1 1h5.5859l-4.293 4.293c-0.18758 0.18748-0.29297 0.44182-0.29297 0.70703s0.10539 0.51955 0.29297 0.70703l4.293 4.2929z" fill="#a0c7e7"/>
</g>
</g>
</svg>
